<svg width="20" height="20" viewBox="0 0 20 20" fill="none" xmlns="http://www.w3.org/2000/svg">
<path d="M10.25 18.3334C8.00004 18.3334 5.83337 17.5 4.1667 15.8334C0.833371 12.5 0.833371 7.25002 4.08337 4.00002C5.25004 2.75002 6.83337 1.91668 8.58337 1.66668C8.9167 1.58335 9.25004 1.75002 9.4167 2.08335C9.58337 2.41668 9.58337 2.75002 9.33337 3.00002C7.50004 5.08335 7.6667 8.33335 9.6667 10.3333C11.6667 12.3334 14.8334 12.5 16.9167 10.6667C17.1667 10.4167 17.5834 10.4167 17.8334 10.5833C18.1667 10.75 18.3334 11.0833 18.25 11.4167C18 13.1667 17.1667 14.6667 16 15.9167C14.4167 17.5 12.3334 18.3334 10.25 18.3334Z" fill="#98A2B3"/>
</svg>
