<svg width="20" height="20" viewBox="0 0 20 20" fill="none" xmlns="http://www.w3.org/2000/svg">
<g clip-path="url(#clip0_2911_622)">
<path d="M9.99998 4.33331C6.99998 4.33331 4.58331 6.74998 4.58331 9.74998C4.58331 12.75 6.99998 15.1666 9.99998 15.1666C13 15.1666 15.4166 12.75 15.4166 9.74998C15.4166 6.74998 13 4.33331 9.99998 4.33331Z" fill="#B8BFCC"/>
<path d="M9.99996 3.83331C10.5 3.83331 10.8333 3.49998 10.8333 2.99998V1.66665C10.8333 1.16665 10.5 0.833313 9.99996 0.833313C9.49996 0.833313 9.16663 1.16665 9.16663 1.66665V2.99998C9.16663 3.41665 9.49996 3.83331 9.99996 3.83331Z" fill="#B8BFCC"/>
<path d="M4.41667 5.58333C4.58333 5.75 4.83333 5.83333 5 5.83333C5.16667 5.83333 5.41667 5.75 5.58333 5.58333C5.91667 5.25 5.91667 4.75 5.58333 4.41667L4.66667 3.5C4.33333 3.16667 3.83333 3.16667 3.5 3.5C3.16667 3.83333 3.16667 4.33333 3.5 4.66667L4.41667 5.58333Z" fill="#B8BFCC"/>
<path d="M3.83331 9.99996C3.83331 9.49996 3.49998 9.16663 2.99998 9.16663H1.66665C1.16665 9.16663 0.833313 9.49996 0.833313 9.99996C0.833313 10.5 1.16665 10.8333 1.66665 10.8333H2.99998C3.41665 10.8333 3.83331 10.5 3.83331 9.99996Z" fill="#B8BFCC"/>
<path d="M4.41667 14.4166L3.5 15.3333C3.16667 15.6666 3.16667 16.1666 3.5 16.5C3.66667 16.6666 3.91667 16.75 4.08333 16.75C4.25 16.75 4.5 16.6666 4.66667 16.5L5.58333 15.5833C5.91667 15.25 5.91667 14.75 5.58333 14.4166C5.25 14.0833 4.75 14.0833 4.41667 14.4166Z" fill="#B8BFCC"/>
<path d="M9.99996 16.1666C9.49996 16.1666 9.16663 16.5 9.16663 17V18.3333C9.16663 18.8333 9.49996 19.1666 9.99996 19.1666C10.5 19.1666 10.8333 18.8333 10.8333 18.3333V17C10.8333 16.5833 10.5 16.1666 9.99996 16.1666Z" fill="#B8BFCC"/>
<path d="M15.5833 14.4166C15.25 14.0833 14.75 14.0833 14.4166 14.4166C14.0833 14.75 14.0833 15.25 14.4166 15.5833L15.3333 16.5C15.5 16.6666 15.75 16.75 15.9166 16.75C16.0833 16.75 16.3333 16.6666 16.5 16.5C16.8333 16.1666 16.8333 15.6666 16.5 15.3333L15.5833 14.4166Z" fill="#B8BFCC"/>
<path d="M18.3333 9.16663H17C16.5 9.16663 16.1666 9.49996 16.1666 9.99996C16.1666 10.5 16.5 10.8333 17 10.8333H18.3333C18.8333 10.8333 19.1666 10.5 19.1666 9.99996C19.1666 9.49996 18.8333 9.16663 18.3333 9.16663Z" fill="#B8BFCC"/>
<path d="M15 5.83333C15.25 5.83333 15.4166 5.75 15.5833 5.58333L16.5 4.66667C16.8333 4.33333 16.8333 3.83333 16.5 3.5C16.1666 3.16667 15.6666 3.16667 15.3333 3.5L14.4166 4.41667C14.0833 4.75 14.0833 5.25 14.4166 5.58333C14.5833 5.75 14.75 5.83333 15 5.83333Z" fill="#B8BFCC"/>
</g>
<defs>
<clipPath id="clip0_2911_622">
<rect width="20" height="20" fill="white"/>
</clipPath>
</defs>
</svg>
